<?xml version="1.0" encoding="UTF-8"?>
<!DOCTYPE svg PUBLIC "-//W3C//DTD SVG 1.1//EN" "http://www.w3.org/Graphics/SVG/1.1/DTD/svg11.dtd">
<svg version="1.1" xmlns="http://www.w3.org/2000/svg" xmlns:xlink="http://www.w3.org/1999/xlink" x="0px" y="0px" width="252" height="252" viewBox="0, 0, 252, 252">
  <g id="ring">
    <g>
      <path d="M11,126.5 C11,62.711 62.711,11 126.5,11" fill-opacity="0" stroke="#009AFF" stroke-width="20.417"/>
      <path d="M126.5,242 C62.711,242 11,190.289 11,126.5" fill-opacity="0" stroke="#009AFF" stroke-width="20.417"/>
      <path d="M126.5,11 C190.289,11 242,62.711 242,126.5" fill-opacity="0" stroke="#009AFF" stroke-width="20.417"/>
      <path d="M242,126.5 C242,190.289 190.289,242 126.5,242" fill-opacity="0" stroke="#009AFF" stroke-width="20.417"/>
    </g>
  </g>
  <g id="edges">
    <g>
      <path d="M126.455,21.5 C98.776,23.725 96.868,48.012 102.584,71.318 C81.255,80.265 57.803,81.284 35.546,74.039 C55.427,39.603 90.24,21.809 126.455,21.5" fill="#009AFF"/>
      <path d="M126.455,21.5 C98.776,23.725 96.868,48.012 102.584,71.318 C81.255,80.265 57.803,81.284 35.546,74.039 C55.427,39.603 90.24,21.809 126.455,21.5" fill-opacity="0" stroke="#279AFF" stroke-width="0.292"/>
    </g>
    <g>
      <path d="M35.447,179.051 C51.214,201.909 73.201,191.418 90.527,174.815 C108.939,188.813 121.549,208.613 126.403,231.511 C86.639,231.511 53.823,210.259 35.447,179.051" fill="#009AFF"/>
      <path d="M35.447,179.051 C51.214,201.909 73.201,191.418 90.527,174.815 C108.939,188.813 121.549,208.613 126.403,231.511 C86.639,231.511 53.823,210.259 35.447,179.051" fill-opacity="0" stroke="#009AFF" stroke-width="0.292"/>
    </g>
    <g>
      <path d="M217.305,179.051 C201.538,201.909 179.551,191.418 162.225,174.815 C143.813,188.813 131.203,208.613 126.349,231.511 C166.113,231.511 198.93,210.259 217.305,179.051" fill="#009AFF"/>
      <path d="M217.305,179.051 C201.538,201.909 179.551,191.418 162.225,174.815 C143.813,188.813 131.203,208.613 126.349,231.511 C166.113,231.511 198.93,210.259 217.305,179.051" fill-opacity="0" stroke="#009AFF" stroke-width="0.292"/>
    </g>
    <g>
      <path d="M217.368,179 C229.28,153.917 209.201,140.121 186.16,133.418 C189.076,110.473 199.92,89.653 217.322,74 C237.204,108.437 235.208,147.483 217.368,179" fill="#009AFF"/>
      <path d="M217.368,179 C229.28,153.917 209.201,140.121 186.16,133.418 C189.076,110.473 199.92,89.653 217.322,74 C237.204,108.437 235.208,147.483 217.368,179" fill-opacity="0" stroke="#009AFF" stroke-width="0.292"/>
    </g>
    <g>
      <path d="M126.71,21.5 C154.389,23.725 156.297,48.012 150.581,71.318 C171.91,80.265 195.363,81.284 217.62,74.039 C197.738,39.603 162.925,21.809 126.71,21.5" fill="#009AFF"/>
      <path d="M126.71,21.5 C154.389,23.725 156.297,48.012 150.581,71.318 C171.91,80.265 195.363,81.284 217.62,74.039 C197.738,39.603 162.925,21.809 126.71,21.5" fill-opacity="0" stroke="#009AFF" stroke-width="0.292"/>
    </g>
    <g>
      <path d="M35.5,179 C23.587,153.917 43.667,140.121 66.708,133.418 C63.792,110.473 52.948,89.653 35.546,74 C15.664,108.437 17.66,147.483 35.5,179" fill="#009AFF"/>
      <path d="M35.5,179 C23.587,153.917 43.667,140.121 66.708,133.418 C63.792,110.473 52.948,89.653 35.546,74 C15.664,108.437 17.66,147.483 35.5,179" fill-opacity="0" stroke="#009AFF" stroke-width="0.292"/>
    </g>
    <path d="M90.579,174.826 C109.292,188.844 121.595,208.897 126.5,231.5" fill-opacity="0" stroke="#5386FF" stroke-width="0.292"/>
    <path d="M217.473,74.021 C200.07,89.674 189.217,110.473 186.301,133.418" fill-opacity="0" stroke="#5386FF" stroke-width="0.292"/>
    <path d="M217.473,74.021 C195.216,81.266 171.771,80.139 150.442,71.193" fill-opacity="0" stroke="#5386FF" stroke-width="0.292"/>
    <path d="M102.62,71.193 C81.079,80.35 57.573,81.053 35.546,74" fill-opacity="0" stroke="#5386FF" stroke-width="0.292"/>
    <path d="M162.517,174.826 C143.805,188.844 131.502,208.897 126.597,231.5" fill-opacity="0" stroke="#5386FF" stroke-width="0.292"/>
    <path d="M126.597,231.5 C86.833,231.5 53.875,210.208 35.5,179" fill-opacity="0" stroke="#5386FF" stroke-width="0.292"/>
    <path d="M217.418,178.858 C197.536,213.294 162.618,231.191 126.403,231.5" fill-opacity="0" stroke="#5386FF" stroke-width="0.292"/>
    <path d="M217.304,73.716 C237.185,108.152 235.225,147.34 217.386,178.858" fill-opacity="0" stroke="#5386FF" stroke-width="0.292"/>
    <path d="M35.546,74 C55.427,39.564 90.495,21.809 126.71,21.5" fill-opacity="0" stroke="#5386FF" stroke-width="0.292"/>
    <path d="M126.41,21.5 C166.174,21.5 199.132,42.792 217.507,74" fill-opacity="0" stroke="#5386FF" stroke-width="0.292"/>
  </g>
  <g id="cores">
    <g>
      <path d="M126.597,21.5 C86.308,25.218 96.299,74.19 126.5,126.5" fill="#009AFF"/>
      <path d="M126.597,21.5 C86.308,25.218 96.299,74.19 126.5,126.5" fill-opacity="0" stroke="#009AFF" stroke-width="0.292"/>
    </g>
    <g>
      <path d="M126.597,21.5 C166.885,25.218 156.701,74.19 126.5,126.5" fill="#009AFF"/>
      <path d="M126.597,21.5 C166.885,25.218 156.701,74.19 126.5,126.5" fill-opacity="0" stroke="#009AFF" stroke-width="0.292"/>
    </g>
    <g>
      <path d="M217.418,179.064 C234.342,142.314 186.903,126.5 126.5,126.5" fill="#009AFF"/>
      <path d="M217.418,179.064 C234.342,142.314 186.903,126.5 126.5,126.5" fill-opacity="0" stroke="#009AFF" stroke-width="0.292"/>
    </g>
    <g>
      <path d="M217.418,179.064 C195.042,211.667 156.542,179.064 126.5,126.5" fill="#009AFF"/>
      <path d="M217.418,179.064 C195.042,211.667 156.542,179.064 126.5,126.5" fill-opacity="0" stroke="#009AFF" stroke-width="0.292"/>
    </g>
    <g>
      <path d="M35.5,179 C58.864,212.032 96.299,178.81 126.5,126.5" fill="#009AFF"/>
      <path d="M35.5,179 C58.864,212.032 96.299,178.81 126.5,126.5" fill-opacity="0" stroke="#009AFF" stroke-width="0.292"/>
    </g>
    <g>
      <path d="M35.5,179 C18.576,142.25 66.097,126.5 126.5,126.5" fill="#009AFF"/>
      <path d="M35.5,179 C18.576,142.25 66.097,126.5 126.5,126.5" fill-opacity="0" stroke="#009AFF" stroke-width="0.292"/>
    </g>
  </g>
  <g id="lines">
    <g>
      <path d="M21.5,126.5 C21.5,68.51 68.51,21.5 126.5,21.5" fill-opacity="0" stroke="#FFFFFF" stroke-width="1.458"/>
      <path d="M126.5,231.5 C68.51,231.5 21.5,184.49 21.5,126.5" fill-opacity="0" stroke="#FFFFFF" stroke-width="1.458"/>
      <path d="M126.5,21.5 C184.49,21.5 231.5,68.51 231.5,126.5" fill-opacity="0" stroke="#FFFFFF" stroke-width="1.458"/>
      <path d="M231.5,126.5 C231.5,184.49 184.49,231.5 126.5,231.5" fill-opacity="0" stroke="#FFFFFF" stroke-width="1.458"/>
    </g>
    <path d="M126.597,21.5 L126.5,126.5" fill-opacity="0" stroke="#FFFFFF" stroke-width="1.458"/>
    <path d="M126.5,126.5 L35.5,179" fill-opacity="0" stroke="#FFFFFF" stroke-width="1.458"/>
    <path d="M126.5,126.5 L217.418,179.064" fill-opacity="0" stroke="#FFFFFF" stroke-width="1.458"/>
    <path d="M35.5,179 C18.576,142.25 66.097,126.5 126.5,126.5" fill-opacity="0" stroke="#FFFFFF" stroke-width="1.458"/>
    <path d="M217.418,179.064 C195.042,211.667 156.542,179.064 126.5,126.5" fill-opacity="0" stroke="#FFFFFF" stroke-width="1.458"/>
    <path d="M217.418,179.064 C234.342,142.314 186.903,126.5 126.5,126.5" fill-opacity="0" stroke="#FFFFFF" stroke-width="1.458"/>
    <path d="M126.597,21.5 C86.308,25.218 96.299,74.19 126.5,126.5" fill-opacity="0" stroke="#FFFFFF" stroke-width="1.458"/>
    <path d="M35.5,179 C58.864,212.032 96.299,178.81 126.5,126.5" fill-opacity="0" stroke="#FFFFFF" stroke-width="1.458"/>
    <path d="M126.597,21.5 C166.885,25.218 156.701,74.19 126.5,126.5" fill-opacity="0" stroke="#FFFFFF" stroke-width="1.458"/>
    <path d="M35.546,74 C52.948,89.653 63.792,110.653 66.708,133.597" fill-opacity="0" stroke="#FFFFFF" stroke-width="1.458"/>
    <path d="M35.546,74 C32.203,100.132 35.5,117.847 44.951,143.198" fill-opacity="0" stroke="#FFFFFF" stroke-width="1.458"/>
    <path d="M90.579,174.826 C109.292,188.844 121.595,208.897 126.5,231.5" fill-opacity="0" stroke="#FFFFFF" stroke-width="1.458"/>
    <path d="M126.5,231.5 C102.198,221.329 88.49,209.703 71.261,188.844" fill-opacity="0" stroke="#FFFFFF" stroke-width="1.458"/>
    <path d="M217.473,74.021 C200.07,89.674 189.217,110.473 186.301,133.418" fill-opacity="0" stroke="#FFFFFF" stroke-width="1.458"/>
    <path d="M217.474,74.022 C220.816,100.153 217.705,117.847 208.254,143.198" fill-opacity="0" stroke="#FFFFFF" stroke-width="1.458"/>
    <path d="M126.5,231.5 C150.802,221.329 164.054,209.704 181.283,188.844" fill-opacity="0" stroke="#FFFFFF" stroke-width="1.458"/>
    <path d="M217.473,74.021 C195.216,81.266 171.771,80.139 150.442,71.193" fill-opacity="0" stroke="#FFFFFF" stroke-width="1.458"/>
    <path d="M217.473,74.021 C196.513,58.06 179.63,51.993 152.95,47.502" fill-opacity="0" stroke="#FFFFFF" stroke-width="1.458"/>
    <path d="M102.62,71.193 C81.079,80.35 57.573,81.053 35.546,74" fill-opacity="0" stroke="#FFFFFF" stroke-width="1.458"/>
    <path d="M35.546,74 C56.505,58.039 73.488,51.994 100.168,47.502" fill-opacity="0" stroke="#FFFFFF" stroke-width="1.458"/>
    <path d="M162.517,174.826 C143.805,188.844 131.502,208.897 126.597,231.5" fill-opacity="0" stroke="#FFFFFF" stroke-width="1.458"/>
  </g>
  <defs/>
</svg>
